<?xml version="1.0" encoding="UTF-8"?>
<!DOCTYPE svg PUBLIC "-//W3C//DTD SVG 1.1//EN" "http://www.w3.org/Graphics/SVG/1.1/DTD/svg11.dtd">
<!-- Creator: CorelDRAW -->
<svg xmlns="http://www.w3.org/2000/svg" xml:space="preserve" width="20.32mm" height="8.4666mm" version="1.1" style="shape-rendering:geometricPrecision; text-rendering:geometricPrecision; image-rendering:optimizeQuality; fill-rule:evenodd; clip-rule:evenodd"
viewBox="0 0 2032 846.66"
 xmlns:xlink="http://www.w3.org/1999/xlink"
 xmlns:xodm="http://www.corel.com/coreldraw/odm/2003">
 <defs>
  <style type="text/css">
   <![CDATA[
    .fil6 {fill:#0351B9}
    .fil8 {fill:#038D3E}
    .fil4 {fill:#38B5FE}
    .fil5 {fill:#8B51FD}
    .fil7 {fill:#E8BF19}
    .fil3 {fill:#FE1616}
    .fil2 {fill:#2B616D;fill-rule:nonzero}
    .fil1 {fill:#B2DBD5;fill-rule:nonzero}
    .fil0 {fill:#2B616D;fill-rule:nonzero}
   ]]>
  </style>
 </defs>
 <g id="Слой_x0020_1">
  <metadata id="CorelCorpID_0Corel-Layer"/>
  <path class="fil0" d="M1723.17 422.59l-51.44 -54.82c-2.48,-4.17 -3.66,-8.57 -3.91,-13.01 -1.71,-30.08 -10.38,-59.33 -27.87,-83.86 -3.45,-4.85 -7.24,-10.21 -11.54,-16.15 -26.39,-36.55 -70.38,-28.43 -70.38,-28.43 0,-105.58 -108.29,-106.25 -147.54,-106.25 -39.26,0 -342.35,0 -397.85,0 -55.34,0 -56.17,-44.41 -56.17,-44.66l0 -0.01 0 0 0 0.01c-0.01,0.25 -0.84,44.66 -56.18,44.66 -55.5,0 -358.59,0 -397.85,0 -39.25,0 -147.54,0.67 -147.54,106.25 0,0 -43.99,-8.12 -70.38,28.43 -4.3,5.94 -8.08,11.3 -11.54,16.15 -17.5,24.53 -26.16,53.78 -27.86,83.86 -0.26,4.44 -1.44,8.84 -3.92,13.01l-51.44 54.82 51.44 54.82c2.48,4.17 3.66,8.58 3.92,13.01 1.7,30.08 10.36,59.33 27.86,83.87 3.46,4.84 7.24,10.21 11.54,16.15 26.39,36.54 70.38,28.42 70.38,28.42 0,105.58 108.29,106.26 147.54,106.26 39.26,0 342.35,0 397.85,0 55.34,0 56.17,44.4 56.18,44.66l0 0.01 0 -0.01 0 0c0,-0.26 0.83,-44.66 56.17,-44.66 55.5,0 358.59,0 397.85,0 39.25,0 147.54,-0.68 147.54,-106.26 0,0 43.99,8.12 70.38,-28.42 4.3,-5.94 8.09,-11.31 11.54,-16.15 17.49,-24.54 26.16,-53.79 27.87,-83.87 0.25,-4.43 1.43,-8.84 3.91,-13.01l51.44 -54.82z"/>
  <path class="fil1" d="M1710.11 395.97l-51.44 -54.82c-2.49,-4.18 -3.67,-8.58 -3.92,-13.01 -1.7,-30.08 -10.37,-59.34 -27.86,-83.87 -3.45,-4.84 -7.25,-10.21 -11.54,-16.15 -26.39,-36.55 -70.38,-28.43 -70.38,-28.43 0,-105.58 -108.29,-106.25 -147.54,-106.25 -39.26,0 -342.36,0 -397.85,0 -55.34,0 -56.17,-44.41 -56.18,-44.66l0 0 0 -0.01 0 0.01c0,0.25 -0.83,44.66 -56.17,44.66 -55.5,0 -358.6,0 -397.85,0 -39.26,0 -147.54,0.67 -147.54,106.25 0,0 -43.99,-8.12 -70.39,28.43 -4.29,5.94 -8.08,11.31 -11.53,16.15 -17.5,24.53 -26.17,53.79 -27.87,83.87 -0.25,4.43 -1.43,8.83 -3.91,13.01l-51.44 54.82 51.44 54.82c2.48,4.17 3.66,8.57 3.91,13 1.7,30.08 10.37,59.34 27.87,83.87 3.45,4.84 7.24,10.21 11.53,16.15 26.4,36.55 70.39,28.43 70.39,28.43 0,105.57 108.28,106.25 147.54,106.25 39.25,0 342.35,0 397.85,0 55.34,0 56.17,44.41 56.17,44.66l0 0.01 0 0 0 -0.01c0.01,-0.25 0.84,-44.66 56.18,-44.66 55.49,0 358.59,0 397.85,0 39.25,0 147.54,-0.68 147.54,-106.25 0,0 43.99,8.12 70.38,-28.43 4.29,-5.94 8.09,-11.31 11.54,-16.15 17.49,-24.53 26.16,-53.79 27.86,-83.87 0.25,-4.43 1.43,-8.83 3.92,-13l51.44 -54.82z"/>
  <path class="fil2" d="M946.05 666.26c-21.79,-12.79 -45.73,-15.07 -70.34,-15.07 -21.08,0 -42.16,0 -63.24,0 -66.31,0 -132.62,0 -198.92,0 -41.22,0 -82.44,0 -123.65,0 -30.04,0 -78.03,0.41 -95.06,-30.37 -5.39,-9.74 -5.73,-21.28 -5.73,-32.14 0,-14.81 0,-29.62 0,-44.44 0,-1.56 0,-3.13 0,-4.7 0,-3.53 -3.34,-5.82 -6.64,-5.07 -14.46,3.31 -28.9,6.61 -43.36,9.91 -9.18,2.1 -18.35,1.74 -26.14,-4.69 -9.46,-7.82 -18.36,-24.27 -23.61,-35.25 -7.58,-15.89 -8.62,-32.74 -10.8,-49.87 -1.34,-10.51 -5.4,-24.91 -12.93,-32.94 -9.2,-9.8 -18.4,-19.6 -27.59,-29.41 0,2.48 0,4.96 0,7.43 9.19,-9.8 18.39,-19.6 27.59,-29.4 7.35,-7.84 10.95,-21.37 12.74,-31.54 3.13,-17.78 3.56,-34.4 10.99,-51.26 5.21,-11.8 13.63,-23.23 21.65,-33.26 6.86,-8.58 18.33,-8.92 28.02,-6.72 15.05,3.43 30.09,6.85 45.13,10.27 3.22,0.73 6.76,-1.52 6.65,-5.06 -0.41,-12.88 -0.82,-25.76 -1.24,-38.65 -0.35,-11.2 -1.09,-22.29 1.61,-33.3 9.47,-38.64 63.18,-39.61 94.44,-40.03 38.12,-0.5 76.29,-0.01 114.43,-0.01 66.78,0 133.57,0 200.36,0 23.13,0 46.25,0 69.38,0 20.7,0 40.95,-0.13 60.77,-7.54 5.4,-2.01 10.54,-4.63 15.49,-7.53 -1.77,0 -3.53,0 -5.3,0 21.79,12.79 45.73,15.07 70.34,15.07 21.08,0 42.17,0 63.25,0 66.3,0 132.61,0 198.92,0 41.21,0 82.43,0 123.64,0 30.04,0 78.04,-0.41 95.06,30.37 5.4,9.74 5.73,21.28 5.73,32.13 0,14.82 0,29.63 0,44.44 0,1.58 0,3.14 0,4.71 0,3.53 3.34,5.82 6.65,5.06 14.45,-3.3 28.9,-6.6 43.35,-9.9 9.19,-2.1 18.35,-1.75 26.14,4.69 9.46,7.82 18.37,24.28 23.61,35.25 7.58,15.89 8.63,32.74 10.81,49.87 1.34,10.51 5.39,24.91 12.93,32.94 9.19,9.8 18.39,19.6 27.59,29.4 0,-2.47 0,-4.95 0,-7.43 -9.2,9.81 -18.4,19.61 -27.59,29.41 -7.36,7.84 -10.95,21.37 -12.74,31.54 -3.13,17.79 -3.56,34.4 -11,51.27 -5.2,11.79 -13.63,23.23 -21.65,33.26 -6.86,8.57 -18.33,8.91 -28.02,6.7 -15.04,-3.42 -30.08,-6.84 -45.12,-10.26 -3.23,-0.73 -6.77,1.52 -6.65,5.07 0.41,12.87 0.82,25.75 1.23,38.63 0.36,11.21 1.09,22.3 -1.61,33.31 -9.46,38.64 -63.18,39.62 -94.43,40.02 -38.13,0.51 -76.3,0.02 -114.44,0.02 -66.78,0 -133.57,0 -200.36,0 -23.12,0 -46.25,0 -69.38,0 -20.7,0 -40.95,0.13 -60.77,7.54 -5.39,2.01 -10.54,4.63 -15.49,7.53 -5.84,3.43 -0.55,12.51 5.3,9.08 21.27,-12.49 44.49,-13.64 68.29,-13.64 22.27,0 44.54,0 66.81,0 66.62,0 133.25,0 199.87,0 38.78,0 77.56,0 116.35,0 33.27,0 78.56,-1.04 100.58,-30.61 15.05,-20.21 9.88,-50.28 9.13,-73.63 -0.19,-6.08 -0.38,-12.17 -0.58,-18.25 -2.21,1.69 -4.43,3.38 -6.65,5.06 15.47,3.52 30.94,7.04 46.4,10.55 7.83,1.78 15.29,1.6 23.11,-0.69 13.12,-3.85 20,-17.21 27.37,-27.58 8.53,-11.98 14.11,-25.48 17.68,-39.69 4.73,-18.8 2.85,-37.48 12.68,-54.93 5.96,-10.59 19.68,-22.23 29.1,-32.28 2.01,-2.13 2.01,-5.29 0,-7.43 -9.26,-9.87 -22.68,-21.47 -28.74,-31.65 -9.16,-15.41 -8.75,-31.82 -11.64,-48.89 -2.77,-16.33 -9.23,-32.08 -18.6,-45.69 -6.78,-9.84 -13.06,-20.96 -23.94,-26.64 -7.84,-4.1 -17.46,-4.48 -25.93,-2.54 -15.27,3.49 -30.53,6.97 -45.8,10.46 2.22,1.69 4.44,3.38 6.66,5.07 0,-23.31 2.69,-48.45 -1.77,-71.47 -6.33,-32.64 -38.64,-44.17 -67.96,-48.24 -42.21,-5.85 -87.18,-2.45 -129.63,-2.45 -66.83,0 -133.66,0 -200.49,0 -38.68,0 -77.63,1.37 -116.29,-0.2 -16.19,-0.65 -32.05,-5.25 -46.01,-13.44 -1.62,-0.95 -3.68,-0.95 -5.3,0 -21.27,12.49 -44.48,13.64 -68.29,13.64 -22.27,0 -44.54,0 -66.81,0 -66.62,0 -133.24,0 -199.87,0 -38.78,0 -77.56,0 -116.34,0 -33.28,0 -78.57,1.04 -100.59,30.61 -15.05,20.21 -9.88,50.28 -9.13,73.63 0.19,6.08 0.39,12.17 0.58,18.26 2.22,-1.69 4.43,-3.38 6.65,-5.07 -15.47,-3.52 -30.93,-7.04 -46.4,-10.56 -7.83,-1.78 -15.28,-1.59 -23.11,0.7 -13.11,3.85 -19.99,17.2 -27.36,27.56 -8.53,11.99 -14.11,25.49 -17.69,39.71 -4.72,18.8 -2.85,37.48 -12.67,54.92 -5.96,10.6 -19.68,22.23 -29.11,32.28 -2,2.14 -2,5.3 0,7.43 9.27,9.88 22.68,21.48 28.74,31.67 9.16,15.4 8.76,31.81 11.64,48.88 2.77,16.32 9.23,32.07 18.61,45.68 6.77,9.85 13.05,20.97 23.93,26.65 7.84,4.1 17.46,4.48 25.93,2.54 15.27,-3.49 30.53,-6.98 45.8,-10.46 -2.22,-1.69 -4.43,-3.38 -6.65,-5.07 0,23.31 -2.7,48.45 1.76,71.47 6.33,32.64 38.64,44.17 67.97,48.24 42.2,5.85 87.17,2.45 129.63,2.45 66.83,0 133.66,0 200.48,0 38.68,0 77.64,-1.37 116.29,0.2 16.19,0.65 32.06,5.24 46.01,13.44 5.86,3.43 11.14,-5.65 5.3,-9.08z"/>
  <path class="fil2" d="M432.93 232.81c10.61,-4.95 15.22,-12.87 41.07,-4.19 21.19,7.11 32.72,-8.38 32.72,-8.38 2.32,6.52 6.5,2.13 9.94,0.46 0.08,-0.04 0.16,-0.08 0.23,-0.11 1,-0.46 2.04,-0.77 3.11,-1 6.29,-7.3 15.73,-7.76 23.46,-7.55 6.12,0.16 12.22,0.71 18.32,1.31 22.23,3.25 43.68,4.17 43.68,4.17l80.96 0c0.7,-0.01 2.62,-0.03 5.39,-0.06 2.77,0.03 4.69,0.05 5.38,0.06l584.16 0c0,0 21.44,-0.92 43.68,-4.17 6.1,-0.6 12.19,-1.15 18.31,-1.31 7.73,-0.21 17.18,0.25 23.46,7.55 1.08,0.23 2.12,0.54 3.11,1 0.08,0.03 0.15,0.07 0.23,0.11 3.44,1.67 7.63,6.06 9.95,-0.46 0,0 11.52,15.49 32.72,8.38 25.85,-8.68 30.45,-0.76 41.06,4.19 10.58,4.93 14.49,-4.77 14.49,-4.77 0,0 -5.95,4.1 -13.07,-2.44 -7.15,-6.57 -15.16,-21.96 -27.13,-17.93 0,0 3.15,-10.55 -6.05,-17.03 0,0 1.72,6.33 -2.42,11.1 -4.14,4.76 -13.03,8.73 -6.42,19.41 0,0 -10.02,4.67 -15.13,1.6 0,0 5.86,-9.25 -4.28,-18.87 0.19,0.18 -2.11,3.94 -2.27,4.15 -1.75,2.36 -3.96,3.89 -6.41,3.59 -3.7,-0.46 -6.77,-4.74 -9.18,-8.4 -1.11,-1.68 -2.18,-4.85 -3.59,-5.97 0,0 -4.73,-5.89 -34.23,1.81 -27.24,7.1 -24.76,12.64 -50.02,13.44 -16.92,-0.87 -672.6,-0.87 -689.51,0 -25.26,-0.8 -22.78,-6.34 -50.03,-13.44 -29.49,-7.7 -34.22,-1.81 -34.22,-1.81 -1.42,1.12 -2.49,4.29 -3.59,5.97 -2.41,3.66 -5.49,7.94 -9.19,8.4 -2.45,0.3 -4.65,-1.23 -6.41,-3.59 -0.15,-0.21 -2.45,-3.97 -2.27,-4.15 -10.13,9.62 -4.28,18.87 -4.28,18.87 -5.11,3.07 -15.13,-1.6 -15.13,-1.6 6.61,-10.68 -2.28,-14.65 -6.41,-19.41 -4.15,-4.77 -2.42,-11.1 -2.42,-11.1 -9.21,6.48 -6.05,17.03 -6.05,17.03 -11.97,-4.03 -19.98,11.36 -27.14,17.93 -7.12,6.54 -13.07,2.44 -13.07,2.44 0,0 3.91,9.7 14.49,4.77z"/>
  <path class="fil2" d="M930.4 174.5c-0.87,-2.98 -2.28,-5.79 -4.1,-8.26 -1.8,-2.48 -3.92,-4.71 -6.28,-6.63 -4.69,-3.87 -10.19,-6.67 -16.1,-8.47 -1.49,-0.42 -3,-0.82 -4.54,-1.1l-0.58 -0.11 -0.29 -0.06 -0.35 -0.05 -1.05 -0.16 -2.11 -0.32c-3.07,-0.36 -6.07,-0.63 -9.08,-0.69 -6.04,-0.15 -12.18,0.24 -18.22,1.42 -4.68,0.89 -9.31,2.17 -13.79,3.91 -0.9,-0.48 -1.84,-0.91 -2.83,-1.29 -0.9,-0.29 -1.83,-0.59 -2.77,-0.88 -0.99,-0.21 -2.02,-0.42 -3.04,-0.6 -0.48,-0.05 -0.95,-0.1 -1.43,-0.14l-0.72 -0.07 -0.36 -0.04 -0.18 -0.02 -0.09 0 -0.2 -0.01c-1.01,-0.01 -2.03,-0.02 -3.06,-0.03 -0.51,-0.01 -1.03,-0.01 -1.56,-0.01 -0.52,0.03 -1.05,0.06 -1.58,0.1 -1.05,0.08 -2.13,0.11 -3.21,0.24 -1.08,0.14 -2.18,0.29 -3.28,0.44 -1.11,0.13 -2.2,0.42 -3.33,0.63 -4.46,0.95 -9.03,2.36 -13.55,4.32 -4.51,1.97 -8.93,4.48 -13.27,7.32 -8.66,5.71 -16.87,12.87 -24.79,20.58 -3.99,3.82 -7.92,7.81 -11.9,11.78 -3.99,3.95 -8.01,7.93 -12.16,11.77 -4.14,3.84 -8.44,7.51 -12.92,10.87 -1.11,0.82 -2.22,1.59 -3.33,2.39l-1.82 1.2 -0.92 0.6 -0.46 0.3 -0.23 0.14c-0.05,0.04 0.08,-0.05 -0.02,0.02l-0.12 0.06c-2.34,1.4 -4.71,2.73 -7.23,3.83 -1.85,0.86 -3.74,1.62 -5.67,2.29 -1.13,-1.1 -2.11,-2.26 -2.96,-3.42 -0.37,-0.52 -0.73,-1.03 -1.05,-1.55 -0.15,-0.25 2.88,0.83 4.82,0.83 5.23,0 9.47,-4.23 9.47,-9.47 0,-5.23 -4.24,-9.47 -9.47,-9.47 -2.81,0 -6.07,1.54 -7.62,3.87 -1.88,2.83 -1.89,6.51 -1,9.67 0.54,1.91 1.4,3.7 2.28,5.47 0.25,0.51 2.53,5.04 3.04,4.88 -2.46,0.76 -4.96,1.38 -7.48,1.87 -5.39,1.06 -10.89,1.54 -16.36,1.46 -1.36,0.01 -2.73,-0.08 -4.08,-0.15 -1.37,-0.06 -2.65,-0.24 -3.98,-0.33l-2.12 -0.27 -1.06 -0.14 -0.13 -0.01c0,0 -0.07,-0.01 -0.09,-0.01l-0.19 -0.04 -0.47 -0.08c-1.25,-0.19 -2.5,-0.49 -3.73,-0.81 -4.91,-1.37 -9.57,-3.63 -13.44,-6.61 -3.88,-2.97 -6.89,-6.75 -8.31,-10.87 -1.46,-4.13 -1.12,-8.58 0.5,-12.74l0.17 -0.44 0.09 -0.22 0.04 -0.09 0.35 -0.74c0.25,-0.48 0.46,-0.99 0.72,-1.46 0.58,-0.91 1.09,-1.87 1.78,-2.68 0.6,-0.87 1.37,-1.6 2.08,-2.36 0.38,-0.36 0.8,-0.69 1.18,-1.04 0.2,-0.17 0.39,-0.35 0.6,-0.52l0.63 -0.46c3.37,-2.51 7.42,-4 11.43,-4.95 2.03,-0.45 4.05,-0.8 6.07,-1 1,-0.12 1.99,-0.2 2.97,-0.25 0.95,-0.08 2,-0.11 2.99,-0.15 3.84,-0.14 7.58,0.07 11.03,0.46 3.46,0.41 6.66,1.07 9.59,1.82 1.47,0.36 2.84,0.82 4.16,1.24 0.66,0.23 1.28,0.48 1.9,0.72 0.63,0.22 1.22,0.47 1.78,0.74 4.59,2.04 7.87,4.39 9.84,6.23 1.04,0.88 1.72,1.69 2.2,2.22 0.48,0.52 0.72,0.79 0.72,0.79 0,0 -0.21,-0.29 -0.62,-0.87 -0.41,-0.59 -0.97,-1.48 -1.92,-2.49 -1.81,-2.09 -4.84,-4.92 -9.41,-7.48 -4.54,-2.58 -10.55,-4.87 -17.7,-6.31 -3.59,-0.7 -7.42,-1.22 -11.58,-1.41 -1.95,-0.09 -4.16,-0.12 -6.31,0 -2.18,0.08 -4.41,0.32 -6.7,0.68 -4.54,0.79 -9.38,2.17 -13.83,5.05l-0.83 0.53c-0.27,0.19 -0.53,0.4 -0.8,0.61 -0.53,0.41 -1.07,0.8 -1.58,1.25 -0.97,0.94 -2,1.85 -2.85,2.95 -0.94,1.02 -1.67,2.2 -2.46,3.36 -0.37,0.59 -0.67,1.22 -1.01,1.83l-0.49 0.93 -0.07 0.12c-0.01,0.01 -0.12,0.28 -0.1,0.22l-0.09 0.22 -0.19 0.43c-0.24,0.58 -0.49,1.12 -0.75,1.88 -0.25,0.72 -0.51,1.44 -0.67,2.14 -0.19,0.7 -0.37,1.42 -0.49,2.15l-0.19 1.09 -0.11 1.12c-0.3,2.99 -0.02,6.13 0.87,9.09 0.87,2.98 2.28,5.79 4.1,8.26 1.8,2.48 3.93,4.7 6.28,6.63 4.7,3.87 10.19,6.67 16.11,8.47 1.48,0.42 2.99,0.82 4.53,1.1l0.58 0.11 0.29 0.05 0.35 0.06 1.05 0.16 2.12 0.32c3.06,0.36 6.06,0.63 9.08,0.68 6.04,0.16 12.17,-0.23 18.21,-1.41 4.68,-0.89 9.31,-2.17 13.79,-3.9 0.9,0.47 1.84,0.9 2.82,1.28 0.92,0.29 1.84,0.59 2.78,0.88 0.99,0.21 2.02,0.42 3.05,0.61 0.47,0.04 0.94,0.09 1.42,0.13l0.72 0.07 0.36 0.04 0.18 0.02 0.09 0.01 0.2 0c1.01,0.01 2.03,0.02 3.06,0.03 0.52,0.01 1.04,0.01 1.56,0.01 0.52,-0.03 1.05,-0.06 1.58,-0.1 1.06,-0.08 2.14,-0.11 3.22,-0.24 1.08,-0.15 2.17,-0.29 3.27,-0.44 1.11,-0.13 2.21,-0.42 3.33,-0.63 4.46,-0.95 9.04,-2.36 13.55,-4.32 4.51,-1.97 8.94,-4.48 13.27,-7.32 8.67,-5.71 16.86,-12.87 24.8,-20.57 3.98,-3.84 7.91,-7.82 11.89,-11.78 3.99,-3.96 8.02,-7.94 12.16,-11.78 4.14,-3.84 8.44,-7.51 12.92,-10.87 1.11,-0.83 2.22,-1.59 3.33,-2.39l1.82 -1.2 0.92 -0.6 0.46 -0.3 0.23 -0.15c0.05,-0.03 -0.08,0.06 0.03,-0.01l0.11 -0.07c2.34,-1.39 4.72,-2.73 7.23,-3.82 1.85,-0.85 3.74,-1.62 5.67,-2.29 1.63,1.58 2.95,3.3 4.02,4.97 2.54,4.27 3.6,8.19 4.05,10.86 0.28,1.34 0.35,2.38 0.43,3.09 0.07,0.7 0.11,1.07 0.11,1.07 0,0 0.01,-0.37 0.02,-1.08 0.01,-0.71 0.1,-1.77 -0.04,-3.14 -0.19,-2.74 -0.71,-6.88 -3,-11.66 -0.81,-1.61 -1.82,-3.28 -3.1,-4.92 2.46,-0.75 4.96,-1.38 7.48,-1.87 5.39,-1.06 10.9,-1.54 16.36,-1.46 1.37,-0.01 2.73,0.08 4.09,0.15 1.36,0.07 2.64,0.23 3.97,0.33l2.12 0.27 1.06 0.14 0.13 0.01c0.01,0 0.07,0.01 0.09,0.01l0.19 0.04 0.48 0.08c1.25,0.19 2.49,0.5 3.72,0.81 4.91,1.37 9.58,3.63 13.45,6.61 3.87,2.97 6.89,6.75 8.29,10.87 1.47,4.13 1.13,8.58 -0.49,12.74l-0.17 0.44c0,0 -0.08,0.22 -0.09,0.23l-0.03 0.08 -0.36 0.74c-0.24,0.49 -0.45,0.99 -0.72,1.46 -0.58,0.91 -1.08,1.86 -1.77,2.67 -0.61,0.88 -1.38,1.61 -2.09,2.38 -0.38,0.36 -0.79,0.68 -1.18,1.03 -0.2,0.18 -0.39,0.36 -0.59,0.52l-0.64 0.45c-3.37,2.52 -7.41,4.01 -11.43,4.96 -2.03,0.45 -4.05,0.8 -6.06,1 -1.01,0.12 -2,0.2 -2.98,0.25 -0.95,0.08 -1.99,0.11 -2.99,0.15 -3.83,0.14 -7.58,-0.07 -11.03,-0.47 -3.46,-0.4 -6.66,-1.06 -9.59,-1.81 -1.47,-0.36 -2.84,-0.82 -4.16,-1.24 -0.66,-0.23 -1.28,-0.48 -1.9,-0.71 -0.62,-0.23 -1.22,-0.48 -1.78,-0.75 -3.67,-1.63 -6.49,-3.46 -8.49,-5.07 1.28,0.65 2.73,1.03 4.27,1.03 5.22,0 9.47,-4.25 9.47,-9.48 0,-5.23 -4.25,-9.47 -9.47,-9.47 -4.71,0 -9.59,4.04 -9.48,8.96 0.08,3.1 1.49,5.85 3.48,8.15 1.81,2.09 4.84,4.93 9.42,7.47 4.53,2.59 10.54,4.89 17.69,6.32 3.59,0.7 7.42,1.22 11.58,1.41 1.95,0.08 4.16,0.12 6.32,0 2.17,-0.08 4.41,-0.32 6.69,-0.67 4.54,-0.8 9.38,-2.18 13.82,-5.07l0.85 -0.52c0.27,-0.19 0.52,-0.4 0.79,-0.61 0.53,-0.4 1.07,-0.81 1.58,-1.25 0.98,-0.94 2,-1.86 2.85,-2.95 0.94,-1.02 1.67,-2.2 2.46,-3.36 0.37,-0.59 0.67,-1.22 1.01,-1.84l0.5 -0.93 0.06 -0.11c0.01,-0.02 0.12,-0.28 0.1,-0.22l0.09 -0.22 0.19 -0.43c0.24,-0.58 0.5,-1.11 0.75,-1.88 0.25,-0.71 0.51,-1.44 0.67,-2.14 0.2,-0.7 0.37,-1.41 0.49,-2.15l0.19 -1.09 0.12 -1.12c0.29,-2.99 0.01,-6.13 -0.88,-9.09zm-88.63 -14.49l0 0 -0.13 0.07 -0.2 0.13 -0.23 0.15 -0.46 0.3 -0.91 0.61 -1.83 1.21c-1.26,0.91 -2.54,1.81 -3.76,2.72 -4.84,3.64 -9.3,7.61 -13.55,11.64 -4.25,4.03 -8.28,8.16 -12.19,12.25 -3.9,4.07 -7.74,8.08 -11.52,12.02 -7.58,7.78 -15.09,14.99 -22.98,20.7 -7.87,5.72 -16.08,9.95 -24.21,12.16 -1.02,0.25 -2.02,0.59 -3.03,0.77 -1.01,0.2 -2.01,0.4 -3,0.6 -1,0.18 -1.99,0.27 -2.97,0.41 -0.49,0.06 -0.98,0.13 -1.46,0.19 -0.49,0.04 -0.98,0.08 -1.46,0.11 -0.96,0.07 -1.92,0.13 -2.86,0.19 -0.93,0 -1.86,-0.02 -2.77,-0.03 -0.84,-0.1 -1.67,-0.2 -2.48,-0.3 -0.67,-0.15 -1.32,-0.31 -1.98,-0.46 2.67,-1.2 5.23,-2.65 7.73,-4.16l0.13 -0.07 0.2 -0.13 0.23 -0.15 0.46 -0.31 0.91 -0.59 1.83 -1.22c1.26,-0.91 2.54,-1.8 3.77,-2.72 4.83,-3.64 9.28,-7.61 13.54,-11.65 4.25,-4.03 8.28,-8.16 12.19,-12.25 3.89,-4.06 7.74,-8.07 11.52,-12.02 7.59,-7.77 15.1,-14.98 22.98,-20.69 7.87,-5.72 16.08,-9.95 24.22,-12.16 1.01,-0.25 2.01,-0.59 3.02,-0.77 1.02,-0.2 2.02,-0.4 3.01,-0.6 0.99,-0.18 1.99,-0.27 2.96,-0.41 0.49,-0.06 0.98,-0.13 1.47,-0.19 0.48,-0.04 0.97,-0.07 1.45,-0.11 0.96,-0.07 1.92,-0.13 2.86,-0.2 0.94,0.01 1.86,0.03 2.77,0.04 0.84,0.1 1.67,0.2 2.48,0.3 0.67,0.16 1.33,0.31 1.98,0.46 -2.66,1.2 -5.22,2.65 -7.73,4.16z"/>
  <path class="fil2" d="M955.53 183.59l0.11 1.12 0.19 1.09c0.12,0.74 0.3,1.45 0.49,2.15 0.17,0.7 0.42,1.43 0.68,2.14 0.24,0.77 0.5,1.3 0.75,1.88l0.18 0.43 0.1 0.22c-0.03,-0.06 0.08,0.2 0.1,0.22l0.06 0.11 0.49 0.93c0.34,0.62 0.64,1.25 1.01,1.84 0.79,1.16 1.52,2.34 2.46,3.36 0.85,1.09 1.87,2.01 2.85,2.95 0.51,0.44 1.05,0.85 1.58,1.25 0.27,0.21 0.53,0.42 0.8,0.61l0.84 0.52c4.44,2.89 9.28,4.27 13.82,5.07 2.29,0.35 4.52,0.59 6.7,0.67 2.15,0.12 4.36,0.08 6.32,0 4.15,-0.19 7.98,-0.71 11.57,-1.41 7.15,-1.43 13.16,-3.73 17.7,-6.32 4.57,-2.54 7.6,-5.38 9.41,-7.47 2,-2.3 3.4,-5.05 3.48,-8.15 0.12,-4.92 -4.77,-8.96 -9.47,-8.96 -5.23,0 -9.48,4.24 -9.48,9.47 0,5.23 4.25,9.48 9.48,9.48 1.53,0 2.98,-0.38 4.26,-1.03 -1.99,1.61 -4.81,3.44 -8.48,5.07 -0.57,0.27 -1.17,0.52 -1.78,0.75 -0.62,0.23 -1.25,0.48 -1.91,0.71 -1.32,0.42 -2.69,0.88 -4.16,1.24 -2.92,0.75 -6.13,1.41 -9.59,1.81 -3.45,0.4 -7.19,0.61 -11.03,0.47 -0.99,-0.04 -2.03,-0.07 -2.99,-0.15 -0.97,-0.05 -1.96,-0.13 -2.98,-0.25 -2.01,-0.2 -4.03,-0.55 -6.06,-1 -4.01,-0.95 -8.06,-2.44 -11.42,-4.96l-0.64 -0.45c-0.21,-0.16 -0.4,-0.34 -0.6,-0.52 -0.38,-0.35 -0.8,-0.67 -1.18,-1.03 -0.71,-0.77 -1.48,-1.5 -2.08,-2.38 -0.69,-0.81 -1.2,-1.76 -1.78,-2.67 -0.27,-0.47 -0.47,-0.97 -0.71,-1.46l-0.36 -0.74 -0.04 -0.08c0,-0.01 -0.09,-0.23 -0.09,-0.23l-0.17 -0.44c-1.61,-4.16 -1.96,-8.61 -0.49,-12.74 1.41,-4.12 4.43,-7.9 8.29,-10.87 3.88,-2.98 8.55,-5.24 13.45,-6.61 1.24,-0.31 2.48,-0.62 3.73,-0.81l0.47 -0.08 0.2 -0.04c0.01,0 0.08,-0.01 0.08,-0.01l0.13 -0.01 1.06 -0.14 2.12 -0.27c1.33,-0.1 2.62,-0.26 3.98,-0.33 1.36,-0.07 2.72,-0.16 4.09,-0.15 5.46,-0.08 10.96,0.4 16.35,1.46 2.53,0.49 5.03,1.12 7.48,1.87 -1.28,1.64 -2.29,3.31 -3.09,4.92 -2.3,4.78 -2.82,8.92 -3.01,11.66 -0.13,1.37 -0.05,2.43 -0.04,3.14 0.02,0.71 0.02,1.08 0.02,1.08 0,0 0.04,-0.37 0.11,-1.07 0.08,-0.71 0.15,-1.75 0.43,-3.09 0.46,-2.67 1.51,-6.59 4.06,-10.86 1.06,-1.67 2.38,-3.39 4.01,-4.97 1.93,0.67 3.82,1.44 5.68,2.29 2.5,1.09 4.89,2.43 7.23,3.82l0.1 0.07c0.11,0.07 -0.02,-0.02 0.04,0.01l0.23 0.15 0.45 0.3 0.92 0.6 1.83 1.2c1.1,0.8 2.21,1.56 3.32,2.39 4.48,3.36 8.78,7.03 12.93,10.87 4.14,3.84 8.16,7.82 12.15,11.78 3.98,3.96 7.91,7.94 11.9,11.78 7.93,7.7 16.13,14.86 24.8,20.57 4.33,2.84 8.76,5.35 13.27,7.32 4.51,1.96 9.08,3.37 13.54,4.32 1.13,0.21 2.22,0.5 3.33,0.63 1.1,0.15 2.2,0.29 3.27,0.44 1.09,0.13 2.17,0.16 3.22,0.24 0.53,0.04 1.06,0.07 1.58,0.1 0.53,0 1.05,0 1.56,-0.01 1.03,-0.01 2.06,-0.02 3.06,-0.03l0.2 0 0.09 -0.01 0.18 -0.02 0.36 -0.04 0.72 -0.07c0.48,-0.04 0.96,-0.09 1.43,-0.13 1.02,-0.19 2.05,-0.4 3.04,-0.61 0.94,-0.29 1.86,-0.59 2.78,-0.88 0.99,-0.38 1.93,-0.81 2.82,-1.28 4.48,1.73 9.12,3.01 13.79,3.9 6.04,1.18 12.17,1.57 18.21,1.41 3.02,-0.05 6.02,-0.32 9.09,-0.68l2.11 -0.32 1.05 -0.16 0.35 -0.06 0.29 -0.05 0.58 -0.11c1.54,-0.28 3.05,-0.68 4.53,-1.1 5.92,-1.8 11.41,-4.6 16.11,-8.47 2.36,-1.93 4.48,-4.15 6.29,-6.63 1.81,-2.47 3.23,-5.28 4.1,-8.26 0.88,-2.96 1.16,-6.1 0.87,-9.09l-0.12 -1.12 -0.19 -1.09c-0.11,-0.73 -0.29,-1.45 -0.49,-2.15 -0.16,-0.7 -0.42,-1.42 -0.67,-2.14 -0.25,-0.76 -0.5,-1.3 -0.75,-1.88l-0.19 -0.43 -0.09 -0.22c0.03,0.06 -0.09,-0.21 -0.1,-0.22l-0.06 -0.12 -0.5 -0.93c-0.34,-0.61 -0.64,-1.24 -1.01,-1.83 -0.79,-1.16 -1.52,-2.34 -2.45,-3.36 -0.85,-1.1 -1.88,-2.01 -2.85,-2.95 -0.52,-0.45 -1.06,-0.84 -1.59,-1.25 -0.26,-0.21 -0.52,-0.42 -0.8,-0.61l-0.83 -0.53c-4.45,-2.88 -9.28,-4.26 -13.83,-5.05 -2.28,-0.36 -4.52,-0.6 -6.69,-0.68 -2.16,-0.12 -4.37,-0.09 -6.32,0 -4.16,0.19 -7.99,0.71 -11.57,1.41 -7.16,1.44 -13.16,3.73 -17.7,6.31 -4.58,2.56 -7.6,5.39 -9.42,7.48 -0.95,1.01 -1.51,1.9 -1.92,2.49 -0.41,0.58 -0.62,0.87 -0.62,0.87 0,0 0.25,-0.27 0.73,-0.79 0.47,-0.53 1.16,-1.34 2.19,-2.22 1.98,-1.84 5.25,-4.19 9.84,-6.23 0.56,-0.27 1.16,-0.52 1.78,-0.74 0.62,-0.24 1.25,-0.49 1.9,-0.72 1.32,-0.42 2.69,-0.88 4.16,-1.24 2.93,-0.75 6.13,-1.41 9.59,-1.82 3.46,-0.39 7.19,-0.6 11.03,-0.46 0.99,0.04 2.04,0.07 3,0.15 0.97,0.05 1.96,0.13 2.97,0.25 2.01,0.2 4.04,0.55 6.06,1 4.02,0.95 8.07,2.44 11.43,4.95l0.64 0.46c0.2,0.17 0.39,0.35 0.59,0.52 0.39,0.35 0.8,0.68 1.18,1.04 0.72,0.76 1.48,1.49 2.09,2.36 0.69,0.81 1.2,1.77 1.77,2.68 0.27,0.47 0.47,0.98 0.72,1.46l0.36 0.74 0.04 0.09 0.08 0.22 0.17 0.44c1.62,4.16 1.97,8.61 0.5,12.74 -1.41,4.12 -4.43,7.9 -8.3,10.87 -3.88,2.98 -8.54,5.24 -13.45,6.61 -1.23,0.32 -2.48,0.62 -3.73,0.81l-0.47 0.08 -0.19 0.04c-0.01,0 -0.08,0.01 -0.09,0.01l-0.13 0.01 -1.06 0.14 -2.11 0.27c-1.34,0.09 -2.62,0.27 -3.98,0.33 -1.36,0.07 -2.72,0.16 -4.09,0.15 -5.46,0.08 -10.96,-0.4 -16.36,-1.46 -2.52,-0.49 -5.02,-1.11 -7.47,-1.87 0.5,0.16 2.78,-4.37 3.04,-4.88 0.87,-1.77 1.74,-3.56 2.27,-5.47 0.89,-3.16 0.89,-6.84 -0.99,-9.67 -1.56,-2.33 -4.82,-3.87 -7.63,-3.87 -5.23,0 -9.47,4.24 -9.47,9.47 0,5.24 4.24,9.47 9.47,9.47 1.94,0 4.98,-1.08 4.82,-0.83 -0.32,0.52 -0.67,1.03 -1.05,1.55 -0.84,1.16 -1.82,2.32 -2.96,3.42 -1.92,-0.67 -3.82,-1.43 -5.67,-2.29 -2.51,-1.1 -4.89,-2.43 -7.23,-3.83l-0.11 -0.06c-0.11,-0.07 0.02,0.02 -0.03,-0.02l-0.23 -0.14 -0.46 -0.3 -0.92 -0.6 -1.82 -1.2c-1.11,-0.8 -2.21,-1.57 -3.33,-2.39 -4.48,-3.36 -8.78,-7.03 -12.92,-10.87 -4.15,-3.84 -8.17,-7.82 -12.15,-11.77 -3.99,-3.97 -7.92,-7.96 -11.91,-11.78 -7.92,-7.71 -16.12,-14.87 -24.79,-20.58 -4.33,-2.84 -8.76,-5.35 -13.27,-7.32 -4.51,-1.96 -9.09,-3.37 -13.55,-4.32 -1.12,-0.21 -2.21,-0.5 -3.32,-0.63 -1.11,-0.15 -2.2,-0.3 -3.28,-0.44 -1.09,-0.13 -2.16,-0.16 -3.22,-0.24 -0.53,-0.04 -1.06,-0.07 -1.58,-0.1 -0.52,0 -1.04,0 -1.56,0.01 -1.03,0.01 -2.05,0.02 -3.05,0.03l-0.21 0.01 -0.09 0 -0.18 0.02 -0.36 0.04 -0.72 0.07c-0.48,0.04 -0.95,0.09 -1.42,0.14 -1.03,0.18 -2.05,0.39 -3.04,0.6 -0.94,0.29 -1.87,0.59 -2.78,0.88 -0.99,0.38 -1.93,0.81 -2.83,1.29 -4.48,-1.74 -9.11,-3.02 -13.78,-3.91 -6.05,-1.18 -12.18,-1.57 -18.22,-1.42 -3.02,0.06 -6.02,0.33 -9.08,0.69l-2.11 0.32 -1.06 0.16 -0.35 0.05 -0.29 0.06 -0.57 0.11c-1.55,0.28 -3.05,0.68 -4.54,1.1 -5.91,1.8 -11.41,4.6 -16.11,8.47 -2.35,1.92 -4.48,4.15 -6.28,6.63 -1.82,2.47 -3.23,5.28 -4.1,8.26 -0.89,2.96 -1.17,6.1 -0.87,9.09zm81.77 -27.74l0 0c0.66,-0.15 1.31,-0.3 1.98,-0.46 0.82,-0.1 1.64,-0.2 2.48,-0.3 0.91,-0.01 1.84,-0.03 2.77,-0.04 0.94,0.07 1.9,0.13 2.87,0.2 0.47,0.04 0.96,0.07 1.45,0.11 0.48,0.06 0.97,0.13 1.46,0.19 0.98,0.14 1.97,0.23 2.97,0.41 0.99,0.2 1.99,0.4 3,0.6 1.02,0.18 2.01,0.52 3.03,0.77 8.14,2.21 16.35,6.44 24.21,12.16 7.89,5.71 15.4,12.92 22.98,20.69 3.78,3.95 7.63,7.96 11.52,12.02 3.91,4.09 7.94,8.22 12.2,12.25 4.25,4.04 8.7,8.01 13.54,11.65 1.22,0.92 2.51,1.81 3.76,2.72l1.83 1.22 0.92 0.59 0.45 0.31 0.23 0.15 0.21 0.13 0.12 0.07c2.51,1.51 5.06,2.96 7.73,4.16 -0.65,0.15 -1.31,0.31 -1.97,0.46 -0.82,0.1 -1.65,0.2 -2.49,0.3 -0.91,0.01 -1.83,0.03 -2.77,0.03 -0.94,-0.06 -1.89,-0.12 -2.86,-0.19 -0.48,-0.03 -0.96,-0.07 -1.45,-0.11 -0.49,-0.06 -0.97,-0.13 -1.47,-0.19 -0.97,-0.14 -1.97,-0.23 -2.96,-0.41 -0.99,-0.2 -1.99,-0.4 -3,-0.6 -1.02,-0.18 -2.02,-0.52 -3.04,-0.77 -8.13,-2.21 -16.34,-6.44 -24.21,-12.16 -7.88,-5.71 -15.39,-12.92 -22.98,-20.7 -3.78,-3.94 -7.62,-7.95 -11.51,-12.02 -3.92,-4.09 -7.94,-8.22 -12.2,-12.25 -4.25,-4.03 -8.7,-8 -13.54,-11.64 -1.22,-0.91 -2.51,-1.81 -3.77,-2.72l-1.83 -1.21 -0.91 -0.61 -0.46 -0.3 -0.23 -0.15 -0.2 -0.13 -0.12 -0.07c-2.51,-1.51 -5.07,-2.96 -7.74,-4.16z"/>
  <path class="fil2" d="M1453.87 559.12c-10.61,4.95 -15.21,12.87 -41.06,4.2 -21.2,-7.12 -32.72,8.37 -32.72,8.37 -2.32,-6.51 -6.51,-2.13 -9.95,-0.46 -0.08,0.04 -0.15,0.08 -0.23,0.11 -0.99,0.46 -2.03,0.77 -3.11,1 -6.28,7.3 -15.73,7.75 -23.46,7.56 -6.12,-0.17 -12.21,-0.71 -18.31,-1.31 -22.24,-3.26 -43.68,-4.18 -43.68,-4.18l-80.97 0c-0.7,0.01 -2.61,0.03 -5.38,0.06 -2.77,-0.03 -4.7,-0.05 -5.39,-0.06l0 0 -584.15 0c0,0 -21.45,0.92 -43.68,4.18 -6.1,0.6 -12.2,1.14 -18.32,1.31 -7.73,0.19 -17.17,-0.26 -23.46,-7.56 -1.07,-0.23 -2.11,-0.54 -3.11,-1 -0.07,-0.03 -0.15,-0.07 -0.23,-0.11 -3.44,-1.67 -7.62,-6.05 -9.94,0.46 0,0 -11.53,-15.49 -32.72,-8.37 -25.85,8.67 -30.46,0.75 -41.07,-4.2 -10.58,-4.93 -14.49,4.77 -14.49,4.77 0,0 5.95,-4.1 13.07,2.45 7.16,6.56 15.17,21.96 27.14,17.92 0,0 -3.16,10.55 6.05,17.03 0,0 -1.73,-6.33 2.42,-11.1 4.13,-4.76 13.02,-8.73 6.41,-19.41 0,0 10.02,-4.66 15.13,-1.59 0,0 -5.85,9.25 4.28,18.86 -0.18,-0.17 2.12,-3.94 2.27,-4.15 1.76,-2.36 3.96,-3.89 6.41,-3.58 3.7,0.46 6.78,4.73 9.19,8.39 1.1,1.68 2.17,4.85 3.59,5.96 0,0 4.73,5.9 34.22,-1.8 27.25,-7.1 24.77,-12.64 50.03,-13.45 16.91,0.88 672.59,0.88 689.51,0 25.26,0.81 22.78,6.35 50.02,13.45 29.5,7.7 34.23,1.8 34.23,1.8 1.41,-1.11 2.48,-4.28 3.59,-5.96 2.41,-3.66 5.48,-7.93 9.18,-8.39 2.45,-0.31 4.66,1.22 6.41,3.58 0.16,0.21 2.46,3.98 2.27,4.15 10.14,-9.61 4.28,-18.86 4.28,-18.86 5.11,-3.07 15.13,1.59 15.13,1.59 -6.61,10.68 2.28,14.65 6.42,19.41 4.14,4.77 2.42,11.1 2.42,11.1 9.2,-6.48 6.05,-17.03 6.05,-17.03 11.97,4.04 19.98,-11.36 27.13,-17.92 7.12,-6.55 13.07,-2.45 13.07,-2.45 0,0 -3.91,-9.7 -14.49,-4.77z"/>
  <path class="fil2" d="M956.4 617.43c0.87,2.98 2.28,5.79 4.1,8.26 1.8,2.49 3.93,4.71 6.28,6.63 4.7,3.87 10.2,6.67 16.11,8.47 1.49,0.42 2.99,0.82 4.54,1.1l0.57 0.11 0.29 0.06 0.35 0.05 1.06 0.16 2.11 0.32c3.06,0.36 6.06,0.63 9.08,0.69 6.04,0.15 12.17,-0.24 18.22,-1.42 4.67,-0.89 9.3,-2.17 13.78,-3.9 0.9,0.47 1.84,0.9 2.83,1.28 0.91,0.29 1.84,0.59 2.78,0.88 0.99,0.21 2.01,0.42 3.04,0.61 0.47,0.04 0.94,0.09 1.42,0.14l0.72 0.06 0.36 0.04 0.18 0.02 0.09 0.01 0.21 0c1,0.02 2.02,0.02 3.05,0.04 0.52,0 1.04,0 1.56,0.01 0.52,-0.04 1.05,-0.07 1.58,-0.11 1.06,-0.08 2.13,-0.11 3.22,-0.24 1.08,-0.14 2.17,-0.29 3.28,-0.43 1.11,-0.14 2.2,-0.43 3.32,-0.63 4.46,-0.95 9.04,-2.37 13.55,-4.33 4.51,-1.97 8.94,-4.48 13.27,-7.32 8.67,-5.71 16.87,-12.87 24.79,-20.57 3.99,-3.84 7.92,-7.82 11.91,-11.79 3.98,-3.95 8,-7.93 12.15,-11.77 4.14,-3.84 8.44,-7.51 12.92,-10.87 1.12,-0.82 2.22,-1.59 3.33,-2.39l1.82 -1.2 0.92 -0.6 0.46 -0.3 0.23 -0.15c0.05,-0.03 -0.08,0.06 0.03,-0.01l0.11 -0.07c2.34,-1.39 4.72,-2.73 7.23,-3.82 1.85,-0.86 3.75,-1.61 5.67,-2.29 1.14,1.1 2.12,2.25 2.96,3.42 0.38,0.52 0.73,1.03 1.05,1.55 0.16,0.25 -2.88,-0.84 -4.82,-0.84 -5.23,0 -9.47,4.25 -9.47,9.48 0,5.23 4.24,9.47 9.47,9.47 2.81,0 6.07,-1.54 7.63,-3.87 1.88,-2.83 1.88,-6.51 0.99,-9.67 -0.53,-1.9 -1.4,-3.7 -2.27,-5.47 -0.26,-0.51 -2.54,-5.03 -3.04,-4.88 2.45,-0.76 4.95,-1.37 7.47,-1.87 5.4,-1.06 10.9,-1.54 16.36,-1.46 1.37,-0.01 2.73,0.08 4.09,0.15 1.36,0.06 2.64,0.23 3.98,0.33l2.11 0.27 1.06 0.14 0.13 0.02c0.01,0 0.08,0.01 0.09,0.01l0.19 0.03 0.47 0.08c1.25,0.19 2.5,0.5 3.73,0.81 4.91,1.37 9.57,3.63 13.45,6.61 3.87,2.97 6.89,6.75 8.3,10.87 1.47,4.13 1.12,8.57 -0.5,12.74l-0.17 0.44c0,0 -0.08,0.22 -0.08,0.22l-0.04 0.09 -0.36 0.74c-0.25,0.49 -0.45,1 -0.72,1.47 -0.57,0.9 -1.08,1.86 -1.77,2.66 -0.61,0.88 -1.37,1.61 -2.09,2.37 -0.38,0.37 -0.79,0.69 -1.18,1.04 -0.2,0.18 -0.39,0.36 -0.59,0.52l-0.64 0.46c-3.36,2.51 -7.41,4 -11.43,4.96 -2.02,0.44 -4.05,0.79 -6.06,0.99 -1.01,0.12 -2,0.2 -2.97,0.26 -0.96,0.07 -2.01,0.1 -3,0.14 -3.84,0.14 -7.57,-0.06 -11.03,-0.46 -3.46,-0.41 -6.66,-1.07 -9.59,-1.82 -1.47,-0.35 -2.84,-0.82 -4.16,-1.24 -0.65,-0.23 -1.28,-0.48 -1.9,-0.71 -0.62,-0.23 -1.22,-0.47 -1.78,-0.75 -4.59,-2.04 -7.86,-4.38 -9.84,-6.23 -1.03,-0.88 -1.72,-1.7 -2.19,-2.22 -0.48,-0.52 -0.73,-0.79 -0.73,-0.79 0,0 0.21,0.3 0.62,0.88 0.41,0.58 0.97,1.46 1.92,2.48 1.82,2.09 4.84,4.93 9.42,7.48 4.54,2.58 10.54,4.87 17.7,6.31 3.58,0.7 7.41,1.23 11.57,1.41 1.95,0.09 4.16,0.12 6.32,0 2.17,-0.08 4.41,-0.32 6.69,-0.68 4.55,-0.79 9.38,-2.17 13.83,-5.05l0.83 -0.53c0.28,-0.19 0.54,-0.4 0.8,-0.6 0.53,-0.41 1.07,-0.81 1.59,-1.26 0.97,-0.94 2,-1.85 2.85,-2.94 0.93,-1.03 1.66,-2.21 2.45,-3.37 0.37,-0.59 0.67,-1.22 1.01,-1.83l0.5 -0.93 0.06 -0.12c0.01,-0.02 0.13,-0.28 0.1,-0.22l0.09 -0.22 0.19 -0.43c0.25,-0.58 0.5,-1.11 0.75,-1.88 0.25,-0.72 0.51,-1.44 0.67,-2.14 0.2,-0.7 0.38,-1.41 0.49,-2.15l0.19 -1.09 0.12 -1.12c0.29,-2.99 0.01,-6.12 -0.87,-9.09 -0.87,-2.98 -2.29,-5.79 -4.1,-8.26 -1.81,-2.48 -3.93,-4.71 -6.29,-6.62 -4.7,-3.88 -10.19,-6.68 -16.11,-8.48 -1.48,-0.42 -2.99,-0.82 -4.53,-1.1l-0.58 -0.11 -0.29 -0.06 -0.35 -0.05 -1.05 -0.16 -2.11 -0.32c-3.07,-0.36 -6.07,-0.63 -9.09,-0.69 -6.04,-0.15 -12.17,0.24 -18.21,1.43 -4.67,0.88 -9.31,2.17 -13.79,3.9 -0.89,-0.48 -1.83,-0.91 -2.82,-1.29 -0.92,-0.29 -1.84,-0.59 -2.78,-0.88 -0.99,-0.21 -2.02,-0.42 -3.04,-0.6 -0.47,-0.05 -0.95,-0.09 -1.43,-0.14l-0.72 -0.07 -0.36 -0.04 -0.18 -0.02 -0.09 -0.01 -0.2 0c-1,-0.01 -2.03,-0.02 -3.06,-0.04 -0.51,0 -1.03,0 -1.56,0 -0.52,0.03 -1.05,0.06 -1.58,0.1 -1.05,0.08 -2.13,0.11 -3.22,0.24 -1.07,0.14 -2.17,0.29 -3.27,0.44 -1.11,0.13 -2.2,0.42 -3.33,0.62 -4.46,0.95 -9.03,2.37 -13.54,4.33 -4.51,1.98 -8.94,4.48 -13.27,7.33 -8.67,5.7 -16.87,12.86 -24.8,20.57 -3.99,3.83 -7.92,7.81 -11.9,11.78 -3.99,3.96 -8.01,7.93 -12.15,11.77 -4.15,3.84 -8.45,7.51 -12.93,10.87 -1.11,0.83 -2.22,1.59 -3.32,2.39l-1.83 1.2 -0.92 0.6 -0.45 0.3 -0.23 0.15c-0.06,0.04 0.07,-0.06 -0.04,0.01l-0.1 0.07c-2.34,1.39 -4.73,2.73 -7.23,3.82 -1.86,0.86 -3.75,1.62 -5.68,2.29 -1.63,-1.58 -2.95,-3.3 -4.01,-4.97 -2.55,-4.27 -3.6,-8.19 -4.06,-10.86 -0.28,-1.33 -0.35,-2.38 -0.43,-3.09 -0.07,-0.7 -0.11,-1.06 -0.11,-1.06 0,0 0,0.36 -0.02,1.07 -0.01,0.71 -0.09,1.77 0.04,3.15 0.19,2.73 0.71,6.87 3.01,11.66 0.8,1.6 1.81,3.27 3.09,4.91 -2.45,0.76 -4.95,1.38 -7.48,1.87 -5.39,1.06 -10.89,1.54 -16.35,1.46 -1.37,0.01 -2.73,-0.08 -4.09,-0.15 -1.36,-0.06 -2.65,-0.23 -3.98,-0.33l-2.12 -0.27 -1.06 -0.14 -0.13 -0.01c0,0 -0.07,-0.01 -0.08,-0.01l-0.2 -0.03 -0.47 -0.09c-1.25,-0.19 -2.49,-0.49 -3.73,-0.81 -4.9,-1.37 -9.57,-3.63 -13.45,-6.61 -3.86,-2.97 -6.88,-6.74 -8.29,-10.87 -1.47,-4.13 -1.12,-8.57 0.49,-12.74l0.17 -0.44c0,0 0.09,-0.22 0.09,-0.22l0.04 -0.08 0.36 -0.75c0.24,-0.48 0.44,-0.99 0.71,-1.46 0.58,-0.91 1.09,-1.87 1.78,-2.67 0.6,-0.88 1.37,-1.6 2.08,-2.37 0.38,-0.36 0.8,-0.69 1.18,-1.04 0.2,-0.17 0.39,-0.35 0.6,-0.52l0.64 -0.45c3.36,-2.52 7.41,-4.01 11.42,-4.96 2.03,-0.44 4.05,-0.8 6.06,-1 1.02,-0.12 2.01,-0.2 2.98,-0.25 0.96,-0.08 2,-0.11 2.99,-0.15 3.84,-0.14 7.58,0.07 11.03,0.47 3.46,0.4 6.67,1.06 9.59,1.81 1.47,0.36 2.84,0.82 4.16,1.24 0.66,0.23 1.29,0.49 1.91,0.72 0.61,0.22 1.21,0.47 1.78,0.74 3.67,1.63 6.49,3.46 8.48,5.07 -1.28,-0.65 -2.73,-1.02 -4.26,-1.02 -5.23,0 -9.48,4.24 -9.48,9.47 0,5.23 4.25,9.47 9.48,9.47 4.7,0 9.59,-4.04 9.47,-8.96 -0.08,-3.1 -1.48,-5.85 -3.48,-8.15 -1.81,-2.09 -4.84,-4.92 -9.41,-7.47 -4.54,-2.59 -10.55,-4.88 -17.7,-6.32 -3.59,-0.7 -7.42,-1.23 -11.57,-1.41 -1.96,-0.09 -4.17,-0.12 -6.32,0 -2.18,0.08 -4.41,0.32 -6.7,0.68 -4.54,0.79 -9.38,2.17 -13.82,5.05l-0.84 0.53c-0.27,0.19 -0.53,0.41 -0.8,0.6 -0.53,0.42 -1.07,0.82 -1.58,1.26 -0.98,0.94 -2,1.85 -2.85,2.95 -0.94,1.02 -1.67,2.2 -2.46,3.36 -0.37,0.59 -0.67,1.22 -1.01,1.83l-0.49 0.93 -0.06 0.12c-0.02,0.02 -0.13,0.29 -0.1,0.22l-0.1 0.22 -0.18 0.43c-0.25,0.58 -0.51,1.12 -0.75,1.88 -0.26,0.72 -0.51,1.44 -0.68,2.14 -0.19,0.7 -0.37,1.42 -0.49,2.15l-0.19 1.1 -0.11 1.11c-0.3,2.99 -0.02,6.13 0.87,9.09zm88.64 14.49l0 0 0.12 -0.07 0.2 -0.13 0.23 -0.15 0.46 -0.3 0.91 -0.6 1.83 -1.22c1.26,-0.9 2.55,-1.8 3.77,-2.72 4.84,-3.63 9.29,-7.61 13.54,-11.64 4.26,-4.03 8.28,-8.16 12.2,-12.26 3.89,-4.06 7.73,-8.07 11.51,-12.01 7.59,-7.78 15.1,-14.98 22.98,-20.7 7.87,-5.73 16.08,-9.95 24.21,-12.16 1.02,-0.25 2.02,-0.59 3.04,-0.77 1.01,-0.2 2.01,-0.4 3,-0.6 0.99,-0.18 1.99,-0.27 2.96,-0.41 0.5,-0.06 0.98,-0.13 1.47,-0.19 0.49,-0.04 0.97,-0.07 1.45,-0.11 0.97,-0.07 1.92,-0.13 2.86,-0.2 0.94,0.02 1.86,0.03 2.77,0.04 0.84,0.1 1.67,0.2 2.49,0.3 0.66,0.15 1.32,0.31 1.97,0.46 -2.67,1.2 -5.22,2.65 -7.73,4.16l-0.12 0.08 -0.21 0.12 -0.23 0.15 -0.45 0.3 -0.92 0.61 -1.83 1.21c-1.25,0.9 -2.54,1.8 -3.76,2.72 -4.84,3.64 -9.29,7.61 -13.54,11.64 -4.26,4.03 -8.29,8.17 -12.2,12.26 -3.89,4.06 -7.74,8.07 -11.52,12.02 -7.58,7.77 -15.09,14.98 -22.98,20.7 -7.86,5.72 -16.07,9.94 -24.21,12.15 -1.02,0.26 -2.01,0.59 -3.03,0.78 -1.01,0.19 -2.01,0.39 -3,0.59 -1,0.18 -1.99,0.27 -2.97,0.41 -0.49,0.07 -0.98,0.13 -1.46,0.19 -0.49,0.04 -0.98,0.07 -1.45,0.11 -0.97,0.07 -1.93,0.14 -2.87,0.2 -0.93,-0.01 -1.86,-0.03 -2.77,-0.04 -0.84,-0.1 -1.66,-0.2 -2.48,-0.3 -0.67,-0.15 -1.32,-0.31 -1.98,-0.46 2.67,-1.2 5.23,-2.65 7.74,-4.16z"/>
  <path class="fil2" d="M931.28 608.34l-0.12 -1.11 -0.19 -1.1c-0.12,-0.73 -0.29,-1.45 -0.49,-2.15 -0.16,-0.7 -0.42,-1.42 -0.67,-2.14 -0.25,-0.76 -0.51,-1.3 -0.75,-1.88l-0.19 -0.43 -0.09 -0.22c0.02,0.07 -0.09,-0.2 -0.1,-0.22l-0.06 -0.12 -0.5 -0.93c-0.34,-0.61 -0.64,-1.24 -1.01,-1.83 -0.79,-1.16 -1.52,-2.34 -2.46,-3.36 -0.85,-1.1 -1.87,-2.01 -2.85,-2.95 -0.51,-0.44 -1.05,-0.84 -1.58,-1.26 -0.27,-0.19 -0.52,-0.41 -0.79,-0.6l-0.85 -0.53c-4.44,-2.88 -9.28,-4.26 -13.82,-5.05 -2.28,-0.36 -4.52,-0.6 -6.69,-0.68 -2.16,-0.12 -4.37,-0.09 -6.32,0 -4.16,0.18 -7.99,0.71 -11.58,1.41 -7.15,1.44 -13.16,3.73 -17.69,6.32 -4.58,2.55 -7.61,5.38 -9.42,7.47 -1.99,2.3 -3.4,5.05 -3.48,8.15 -0.11,4.92 4.77,8.96 9.48,8.96 5.22,0 9.47,-4.24 9.47,-9.47 0,-5.23 -4.25,-9.47 -9.47,-9.47 -1.54,0 -2.99,0.37 -4.27,1.02 2,-1.61 4.82,-3.44 8.49,-5.07 0.56,-0.27 1.16,-0.52 1.78,-0.74 0.62,-0.23 1.24,-0.49 1.9,-0.72 1.32,-0.42 2.69,-0.88 4.16,-1.24 2.93,-0.75 6.13,-1.41 9.59,-1.81 3.45,-0.4 7.2,-0.61 11.03,-0.47 1,0.04 2.04,0.07 2.99,0.15 0.98,0.05 1.97,0.13 2.98,0.25 2.01,0.2 4.03,0.56 6.06,1 4.02,0.95 8.06,2.44 11.43,4.96l0.64 0.45c0.2,0.17 0.39,0.35 0.59,0.52 0.39,0.35 0.8,0.68 1.18,1.04 0.71,0.77 1.48,1.49 2.09,2.37 0.69,0.8 1.19,1.76 1.77,2.67 0.27,0.47 0.48,0.98 0.72,1.46l0.36 0.75 0.03 0.08c0.01,0 0.09,0.22 0.09,0.22l0.17 0.44c1.62,4.17 1.96,8.61 0.5,12.74 -1.41,4.13 -4.43,7.9 -8.3,10.87 -3.87,2.98 -8.54,5.24 -13.45,6.61 -1.23,0.32 -2.47,0.62 -3.72,0.81l-0.48 0.09 -0.19 0.03c-0.02,0 -0.08,0.01 -0.09,0.01l-0.13 0.01 -1.06 0.14 -2.12 0.27c-1.33,0.1 -2.61,0.27 -3.97,0.33 -1.36,0.07 -2.72,0.16 -4.09,0.15 -5.46,0.08 -10.97,-0.4 -16.36,-1.46 -2.52,-0.49 -5.02,-1.11 -7.48,-1.87 1.28,-1.64 2.29,-3.31 3.1,-4.91 2.29,-4.79 2.81,-8.93 3,-11.66 0.14,-1.38 0.05,-2.44 0.04,-3.15 -0.01,-0.71 -0.02,-1.07 -0.02,-1.07 0,0 -0.04,0.36 -0.11,1.06 -0.08,0.71 -0.15,1.76 -0.43,3.09 -0.45,2.67 -1.51,6.59 -4.05,10.86 -1.07,1.67 -2.39,3.39 -4.02,4.97 -1.93,-0.67 -3.82,-1.43 -5.67,-2.29 -2.51,-1.09 -4.89,-2.43 -7.23,-3.82l-0.11 -0.07c-0.11,-0.07 0.02,0.03 -0.03,-0.01l-0.23 -0.15 -0.46 -0.3 -0.92 -0.6 -1.82 -1.2c-1.11,-0.8 -2.22,-1.56 -3.33,-2.39 -4.48,-3.36 -8.78,-7.03 -12.92,-10.87 -4.14,-3.84 -8.17,-7.81 -12.16,-11.77 -3.98,-3.97 -7.91,-7.95 -11.89,-11.78 -7.94,-7.71 -16.13,-14.87 -24.8,-20.57 -4.33,-2.85 -8.76,-5.35 -13.27,-7.33 -4.51,-1.96 -9.09,-3.38 -13.55,-4.33 -1.12,-0.2 -2.22,-0.49 -3.33,-0.62 -1.1,-0.15 -2.19,-0.3 -3.27,-0.44 -1.08,-0.13 -2.16,-0.16 -3.22,-0.24 -0.53,-0.04 -1.06,-0.07 -1.58,-0.1 -0.52,0 -1.04,0 -1.56,0 -1.03,0.02 -2.05,0.03 -3.06,0.04l-0.2 0 -0.09 0.01 -0.18 0.02 -0.36 0.04 -0.72 0.07c-0.48,0.05 -0.95,0.09 -1.42,0.14 -1.03,0.18 -2.06,0.39 -3.05,0.6 -0.94,0.29 -1.86,0.59 -2.78,0.88 -0.98,0.38 -1.92,0.81 -2.82,1.29 -4.48,-1.73 -9.11,-3.02 -13.79,-3.9 -6.04,-1.19 -12.17,-1.58 -18.21,-1.43 -3.02,0.06 -6.02,0.33 -9.08,0.69l-2.12 0.32 -1.05 0.16 -0.35 0.05 -0.29 0.06 -0.58 0.11c-1.54,0.28 -3.05,0.68 -4.53,1.1 -5.92,1.8 -11.41,4.6 -16.11,8.48 -2.35,1.91 -4.48,4.14 -6.28,6.62 -1.82,2.47 -3.23,5.28 -4.1,8.26 -0.89,2.97 -1.17,6.1 -0.87,9.09l0.11 1.12 0.19 1.09c0.12,0.74 0.3,1.45 0.49,2.15 0.16,0.7 0.42,1.42 0.67,2.14 0.26,0.77 0.51,1.3 0.75,1.88l0.19 0.43 0.09 0.22c-0.02,-0.06 0.09,0.2 0.1,0.22l0.07 0.12 0.49 0.93c0.34,0.61 0.64,1.24 1.01,1.83 0.79,1.16 1.52,2.34 2.46,3.37 0.85,1.09 1.88,2 2.85,2.94 0.51,0.45 1.05,0.85 1.58,1.26 0.27,0.2 0.53,0.41 0.8,0.6l0.83 0.53c4.45,2.88 9.29,4.26 13.83,5.05 2.29,0.36 4.52,0.6 6.7,0.68 2.15,0.12 4.36,0.09 6.31,0 4.16,-0.18 7.99,-0.71 11.58,-1.41 7.15,-1.44 13.16,-3.73 17.7,-6.31 4.57,-2.55 7.6,-5.39 9.41,-7.48 0.95,-1.02 1.51,-1.9 1.92,-2.48 0.41,-0.58 0.62,-0.88 0.62,-0.88 0,0 -0.24,0.27 -0.72,0.79 -0.48,0.52 -1.16,1.34 -2.2,2.22 -1.97,1.85 -5.25,4.19 -9.84,6.23 -0.56,0.28 -1.15,0.52 -1.78,0.75 -0.62,0.23 -1.24,0.48 -1.9,0.71 -1.32,0.42 -2.69,0.89 -4.16,1.24 -2.93,0.75 -6.13,1.41 -9.59,1.82 -3.45,0.4 -7.19,0.6 -11.03,0.46 -0.99,-0.04 -2.04,-0.07 -2.99,-0.14 -0.98,-0.06 -1.97,-0.14 -2.97,-0.26 -2.02,-0.2 -4.04,-0.55 -6.07,-0.99 -4.01,-0.96 -8.06,-2.45 -11.43,-4.96l-0.63 -0.46c-0.21,-0.16 -0.4,-0.34 -0.6,-0.52 -0.38,-0.35 -0.8,-0.67 -1.18,-1.04 -0.71,-0.76 -1.48,-1.49 -2.08,-2.37 -0.69,-0.8 -1.2,-1.76 -1.78,-2.66 -0.26,-0.47 -0.47,-0.98 -0.72,-1.47l-0.35 -0.74 -0.04 -0.09c0,0 -0.09,-0.22 -0.09,-0.22l-0.17 -0.44c-1.62,-4.17 -1.96,-8.61 -0.5,-12.74 1.42,-4.12 4.43,-7.9 8.31,-10.87 3.87,-2.98 8.53,-5.24 13.44,-6.61 1.23,-0.31 2.48,-0.62 3.73,-0.81l0.47 -0.08 0.19 -0.03c0.02,0 0.09,-0.01 0.09,-0.01l0.13 -0.02 1.06 -0.14 2.12 -0.27c1.33,-0.1 2.61,-0.27 3.98,-0.33 1.35,-0.07 2.72,-0.16 4.08,-0.15 5.47,-0.08 10.97,0.4 16.36,1.46 2.52,0.5 5.02,1.11 7.48,1.87 -0.51,-0.15 -2.79,4.37 -3.04,4.88 -0.88,1.77 -1.74,3.57 -2.28,5.47 -0.89,3.16 -0.88,6.84 1,9.67 1.55,2.33 4.81,3.87 7.62,3.87 5.23,0 9.47,-4.24 9.47,-9.47 0,-5.23 -4.24,-9.48 -9.47,-9.48 -1.94,0 -4.97,1.09 -4.82,0.84 0.32,-0.52 0.68,-1.03 1.05,-1.55 0.85,-1.17 1.83,-2.32 2.96,-3.42 1.93,0.68 3.82,1.43 5.67,2.29 2.52,1.09 4.89,2.43 7.23,3.82l0.12 0.07c0.1,0.07 -0.03,-0.02 0.02,0.01l0.23 0.15 0.46 0.3 0.92 0.6 1.82 1.2c1.11,0.8 2.22,1.57 3.33,2.39 4.48,3.36 8.78,7.03 12.92,10.87 4.15,3.84 8.17,7.82 12.16,11.77 3.98,3.97 7.91,7.95 11.9,11.79 7.93,7.7 16.13,14.86 24.79,20.57 4.34,2.84 8.77,5.35 13.27,7.32 4.52,1.96 9.09,3.38 13.55,4.33 1.13,0.2 2.22,0.49 3.33,0.63 1.1,0.14 2.2,0.29 3.28,0.43 1.08,0.13 2.16,0.16 3.21,0.24 0.53,0.04 1.06,0.07 1.58,0.11 0.53,-0.01 1.05,-0.01 1.56,-0.01 1.03,-0.02 2.05,-0.02 3.06,-0.04l0.2 0 0.09 -0.01 0.18 -0.02 0.36 -0.04 0.72 -0.06c0.48,-0.05 0.95,-0.1 1.43,-0.14 1.02,-0.19 2.05,-0.4 3.04,-0.61 0.94,-0.29 1.87,-0.59 2.77,-0.88 0.99,-0.38 1.93,-0.81 2.83,-1.28 4.48,1.73 9.11,3.01 13.79,3.9 6.04,1.18 12.18,1.57 18.22,1.42 3.01,-0.06 6.01,-0.33 9.08,-0.69l2.11 -0.32 1.05 -0.16 0.35 -0.05 0.29 -0.06 0.58 -0.11c1.54,-0.28 3.05,-0.68 4.54,-1.1 5.91,-1.8 11.41,-4.6 16.1,-8.47 2.36,-1.92 4.48,-4.14 6.28,-6.63 1.82,-2.47 3.23,-5.28 4.1,-8.26 0.89,-2.96 1.17,-6.1 0.88,-9.09zm-81.78 27.74l0 0c-0.65,0.15 -1.31,0.31 -1.98,0.46 -0.81,0.1 -1.64,0.2 -2.48,0.3 -0.91,0.01 -1.83,0.03 -2.77,0.04 -0.94,-0.06 -1.9,-0.13 -2.86,-0.2 -0.48,-0.04 -0.97,-0.07 -1.45,-0.11 -0.49,-0.06 -0.98,-0.12 -1.47,-0.19 -0.97,-0.14 -1.97,-0.23 -2.96,-0.41 -0.99,-0.2 -1.99,-0.4 -3.01,-0.59 -1.01,-0.19 -2.01,-0.52 -3.02,-0.78 -8.14,-2.21 -16.35,-6.43 -24.22,-12.15 -7.88,-5.72 -15.39,-12.93 -22.98,-20.7 -3.78,-3.95 -7.63,-7.96 -11.52,-12.02 -3.91,-4.09 -7.94,-8.23 -12.19,-12.26 -4.26,-4.03 -8.71,-8 -13.54,-11.64 -1.23,-0.92 -2.51,-1.82 -3.77,-2.72l-1.83 -1.21 -0.91 -0.61 -0.46 -0.3 -0.23 -0.15 -0.2 -0.12 -0.13 -0.08c-2.5,-1.51 -5.06,-2.96 -7.73,-4.16 0.66,-0.15 1.31,-0.31 1.98,-0.46 0.81,-0.1 1.64,-0.2 2.48,-0.3 0.91,-0.01 1.84,-0.02 2.77,-0.04 0.94,0.07 1.9,0.13 2.86,0.2 0.49,0.04 0.97,0.07 1.46,0.11 0.48,0.06 0.97,0.13 1.46,0.19 0.98,0.14 1.97,0.23 2.97,0.41 0.99,0.2 1.99,0.4 3,0.6 1.01,0.18 2.01,0.52 3.03,0.77 8.13,2.21 16.34,6.43 24.21,12.16 7.89,5.72 15.4,12.92 22.98,20.7 3.78,3.94 7.62,7.95 11.52,12.01 3.91,4.1 7.94,8.23 12.19,12.26 4.25,4.03 8.71,8.01 13.55,11.64 1.22,0.92 2.5,1.82 3.76,2.72l1.83 1.22 0.91 0.6 0.46 0.3 0.23 0.15 0.2 0.13 0.13 0.07c2.51,1.51 5.07,2.96 7.73,4.16z"/>
  <path class="fil3" d="M494.65 260.7c-70.59,14.59 -132.24,81.99 -112.65,173.24 14.8,69.1 86.03,128.2 173.66,109.03 67.61,-14.8 128.94,-84.75 109.14,-172.28 -15.33,-68.14 -83.27,-128.09 -170.15,-109.99zm14.8 29.71c64.74,-8.62 117.87,39.93 125,97.11 8.2,67.08 -40.78,118.18 -97.53,125.11 -145.66,17.88 -175.26,-202.63 -27.47,-222.22z"/>
  <path class="fil4" d="M976.88 340.14c18.53,11.28 76.77,1.06 102.96,4.25l-97.64 109.89c-10.33,12.45 -24.91,40.88 9.37,40.88l118.3 0c13.41,0 22.25,-3.83 18.63,-22.36 -4.69,-23.53 -54.73,-10.64 -106.16,-12.13l97.53 -110.95c8.95,-9.05 7.67,-8.31 7.67,-24.07 0,-15.65 -2.56,-16.82 -17.67,-16.82l-118.3 0c-20.97,0 -22.78,15.97 -14.69,31.31z"/>
  <path class="fil5" d="M1417.79 401.68l-45.14 0.21c0,69.1 -10.44,92.95 16.07,93.59 25.35,0.64 16.83,-14.16 16.83,-63.03l30.88 0.21c6.28,13.95 14.26,27.15 21.61,40.57 10.44,19.27 13.63,26.94 41.31,19.91l-28.75 -63.25c7.03,-7.77 24.81,-13.09 33.76,-39.18 12.24,-35.56 -9.27,-79.86 -59.2,-81.77 -20.02,-0.85 -56.12,-1.6 -75.18,0.74 1.82,14.59 39.19,71.13 47.81,92zm31.94 -10.33c-1.38,-2.34 -2.66,-4.79 -3.93,-7.24l-22.9 -44.72c79.33,-2.98 59.52,52.39 33.44,60.69l-6.61 -8.73z"/>
  <path class="fil6" d="M1180.25 495.16c38.43,0 125.85,1.81 158.75,-1.59 1.7,-17.36 -59.84,-139.91 -73.68,-174.09 -3.41,-8.31 -6.92,-20.12 -18.21,-14.59 -7.24,3.52 -18.52,37.06 -23.21,47.49l-56.32 127.13c-6.29,15.01 -2.77,15.65 12.67,15.65zm69.63 -128.41c8.63,8.42 40.99,88.17 42.8,94.66l-81.24 -0.64 38.44 -94.02z"/>
  <path class="fil7" d="M718.36 322.78c0,43.12 -1.81,131.92 0.74,170.04 25.24,5.11 104.56,3.51 133.42,1.17 8.19,-42.59 7.77,-32.37 -101.16,-32.37l-0.1 -138.84c-0.11,-14.16 -4.47,-13.95 -18.85,-13.95 -12.88,0 -14.05,1.07 -14.05,13.95z"/>
  <path class="fil8" d="M892.66 325.65l0 152.05c0,21.19 2.76,18.74 30.24,16.29 7.45,-35.67 2.87,-126.7 2.76,-168.34 0,-15.01 0.64,-17.35 -15.75,-17.67 -15.44,-0.21 -17.25,2.98 -17.25,17.67z"/>
  <path class="fil3" d="M513.07 378.57c-35.14,18.1 -7.24,61.97 22.79,46.43 29.49,-15.34 7.88,-62.19 -22.79,-46.43z"/>
 </g>
</svg>
