<?xml version="1.0" encoding="UTF-8"?>
<!DOCTYPE svg PUBLIC "-//W3C//DTD SVG 1.1//EN" "http://www.w3.org/Graphics/SVG/1.1/DTD/svg11.dtd">
<!-- Creator: CorelDRAW -->
<svg xmlns="http://www.w3.org/2000/svg" xml:space="preserve" width="352.778mm" height="352.778mm" version="1.1" style="shape-rendering:geometricPrecision; text-rendering:geometricPrecision; image-rendering:optimizeQuality; fill-rule:evenodd; clip-rule:evenodd"
viewBox="0 0 35277.78 35277.78"
 xmlns:xlink="http://www.w3.org/1999/xlink"
 xmlns:xodm="http://www.corel.com/coreldraw/odm/2003">
 <defs>
  <style type="text/css">
   <![CDATA[
    .fil3 {fill:#0351B9}
    .fil5 {fill:#038D3E}
    .fil1 {fill:#38B5FE}
    .fil2 {fill:#8B51FD}
    .fil4 {fill:#E8BF19}
    .fil0 {fill:#FE1616}
    .fil7 {fill:#38B5FE;fill-rule:nonzero}
    .fil8 {fill:#8B51FD;fill-rule:nonzero}
    .fil6 {fill:#E8BF19;fill-rule:nonzero}
   ]]>
  </style>
 </defs>
 <g id="Слой_x0020_1">
  <metadata id="CorelCorpID_0Corel-Layer"/>
  <path class="fil0" d="M6059.79 12183.85c-1752.39,362.12 -3282.77,2035.21 -2796.43,4300.36 367.38,1715.41 2135.64,3182.33 4310.94,2706.58 1678.38,-367.38 3200.82,-2103.93 2709.23,-4276.59 -380.61,-1691.6 -2066.96,-3179.69 -4223.74,-2730.35zm367.38 737.44c1607.05,-214.1 2925.98,991.17 3103.04,2410.53 203.55,1665.18 -1012.3,2933.88 -2421.08,3105.68 -3615.83,444.04 -4350.6,-5029.87 -681.96,-5516.21z"/>
  <path class="fil1" d="M18030.53 14155.62c459.92,280.18 1905.71,26.43 2555.91,105.73l-2423.76 2727.71c-256.36,309.25 -618.49,1014.98 232.59,1014.98l2936.52 0c333.06,0 552.42,-95.18 462.56,-555.06 -116.31,-584.13 -1358.58,-264.34 -2635.21,-301.34l2421.11 -2754.14c222.04,-224.65 190.33,-206.16 190.33,-597.36 0,-388.51 -63.47,-417.58 -438.79,-417.58l-2936.52 0c-520.67,0 -565.61,396.45 -364.74,777.06z"/>
  <path class="fil2" d="M28975.74 15683.35l-1120.7 5.29c0,1715.39 -259.01,2307.45 399.13,2323.33 629.07,15.84 417.62,-351.55 417.62,-1564.75l766.51 5.29c155.93,346.25 354.16,673.99 536.54,1007.04 259.05,478.4 338.32,668.69 1025.53,494.24l-713.64 -1570c174.45,-192.97 615.85,-325.12 837.89,-972.68 303.95,-882.82 -229.98,-1982.36 -1469.6,-2029.92 -496.89,-21.16 -1392.91,-39.65 -1866.06,18.49 44.95,362.13 972.68,1765.62 1186.78,2283.67zm792.94 -256.4c-34.36,-58.13 -66.08,-118.92 -97.79,-179.7l-568.29 -1110.12c1969.14,-74.02 1477.54,1300.41 829.95,1506.57l-163.87 -216.75z"/>
  <path class="fil3" d="M23078.91 18004.02c954.16,0 3124.17,44.95 3940.92,-39.65 42.3,-430.81 -1485.44,-3473.06 -1829.05,-4321.53 -84.59,-206.16 -171.8,-499.53 -451.98,-362.09 -179.74,87.21 -459.91,919.8 -576.19,1178.84l-1398.23 3155.88c-155.93,372.68 -68.73,388.55 314.53,388.55zm1728.61 -3187.63c214.1,208.81 1017.59,2188.53 1062.54,2349.75l-2016.69 -15.84 954.15 -2333.91z"/>
  <path class="fil4" d="M11613.01 13724.79c0,1070.47 -44.94,3274.84 18.49,4221.09 626.42,126.86 2595.56,87.21 3311.87,29.07 203.52,-1057.24 192.94,-803.52 -2511,-803.52l-2.64 -3446.64c-2.65,-351.54 -110.99,-346.25 -467.82,-346.25 -319.83,0 -348.9,26.42 -348.9,346.25z"/>
  <path class="fil5" d="M15939.82 13796.16l0 3774.4c0,525.96 68.72,465.17 750.64,404.39 185.03,-885.44 71.36,-3145.33 68.72,-4178.79 0,-372.68 15.87,-430.85 -391.16,-438.75 -383.26,-5.29 -428.2,74.01 -428.2,438.75z"/>
  <path class="fil0" d="M6517.05 15109.79c-872.24,449.33 -179.74,1538.29 565.65,1152.42 732.12,-380.61 195.58,-1543.61 -565.65,-1152.42z"/>
  <path class="fil6" d="M11769.94 18720.08l0 286.97 -45.12 45.4 -45.41 -45.4 0 -286.97 45.41 -45.4 -45.41 -45.4 0 -286.97 45.41 -45.4 45.12 45.4 0 286.97 -45.12 45.4 45.12 45.4zm210.77 93.66l-138.24 193.31 -60.25 0 0 -60.25 198.49 -272.12 0 139.06zm222.46 -93.66l45.41 -45.4 -45.41 -45.4 0 -286.97 45.41 -45.4 45.42 45.4 0 286.97 -45.42 45.4 45.42 45.4 0 286.97 -45.42 45.4 -45.41 -45.4 0 -286.97zm-210.47 93.66l0 -139.06 198.48 272.12 0 60.25 -60.54 0 -137.94 -193.31z"/>
  <path class="fil6" d="M13341.7 18296.91l339.56 0 45.42 45.4 -45.42 45.4 -249.03 0 -90.53 -90.8zm90.53 332.37l249.03 0 45.42 45.4 -45.42 45.4 -249.03 0 -45.12 -45.4 45.12 -45.4zm-98.53 98.8l45.41 -45.41 45.13 45.41 0 225.57 -90.54 90.8 0 -316.37zm0 -423.18l90.54 90.81 0 225.57 -45.13 45.4 -45.41 -45.4 0 -316.38zm8 747.55l90.53 -90.8 249.03 0 45.42 45.4 -45.42 45.4 -339.56 0z"/>
  <path class="fil6" d="M14420.72 18296.91l331.57 0 45.11 45.4 -45.11 45.4 -241.04 0 -90.53 -90.8zm90.53 332.37l241.04 0 45.11 45.4 -45.11 45.4 -241.04 0 -45.12 -45.4 45.12 -45.4zm-98.53 98.8l45.41 -45.41 45.13 45.41 0 225.57 -90.54 90.8 0 -316.37zm98.53 233.57l241.04 0 45.11 45.4 -45.11 45.4 -331.57 0 90.53 -90.8zm249.03 -565.94l45.41 -45.41 45.12 45.41 0 225.57 -45.12 45.4 -45.41 -45.4 0 -225.57zm-347.56 -90.81l90.54 90.81 0 225.57 -45.13 45.4 -45.41 -45.4 0 -316.38zm347.56 423.18l45.41 -45.41 45.12 45.41 0 225.57 -45.12 45.4 -45.41 -45.4 0 -225.57z"/>
  <path class="fil7" d="M16713.76 18296.91l331.57 0 45.12 45.4 -45.12 45.4 -241.04 0 -90.53 -90.8zm-8 7.99l90.54 90.81 0 233.57 -45.13 45.4 45.13 45.4 0 233.57 -90.54 90.8 0 -324.37 45.41 -45.4 -45.41 -45.4 0 -324.38zm339.57 656.75l45.12 45.4 -45.12 45.4 -331.57 0 90.53 -90.8 241.04 0zm7.99 -8l0 -233.57 45.42 -45.4 -45.42 -45.4 0 -233.57 45.42 -45.41 45.11 45.41 0 233.57 -45.11 45.4 45.11 45.4 0 233.57 -45.11 45.4 -45.42 -45.4z"/>
  <path class="fil7" d="M17936.85 18296.91l339.56 0 45.42 45.4 -45.42 45.4 -249.03 0 -90.53 -90.8zm90.53 332.37l249.03 0 45.42 45.4 -45.42 45.4 -249.03 0 -45.12 -45.4 45.12 -45.4zm-98.53 98.8l45.41 -45.41 45.13 45.41 0 225.57 -90.54 90.8 0 -316.37zm0 -423.18l90.54 90.81 0 225.57 -45.13 45.4 -45.41 -45.4 0 -316.38zm8 747.55l90.53 -90.8 249.03 0 45.42 45.4 -45.42 45.4 -339.56 0z"/>
  <path class="fil7" d="M19106.4 18296.91l241.04 0 45.11 45.4 -45.11 45.4 -241.04 0 -45.12 -45.4 45.12 -45.4zm0 332.37l241.04 0 45.11 45.4 -45.11 45.4 -241.04 0 -45.12 -45.4 45.12 -45.4zm0 332.37l241.04 0 45.11 45.4 -45.11 45.4 -241.04 0 -45.12 -45.4 45.12 -45.4zm-98.53 -565.94l45.41 -45.41 45.13 45.41 0 225.57 -45.13 45.4 -45.41 -45.4 0 -225.57zm347.56 332.37l45.42 -45.41 45.11 45.41 0 225.57 -45.11 45.4 -45.42 -45.4 0 -225.57zm-347.56 225.57l0 -71.38 45.41 -45.4 45.13 45.4 0 71.38 -45.13 45.4 -45.41 -45.4zm347.56 -486.56l0 -71.38 45.42 -45.41 45.11 45.41 0 71.38 -45.11 45.4 -45.42 -45.4z"/>
  <path class="fil7" d="M20404.31 18395.71l45.13 -45.41 45.4 44.26 0 234.72 -45.4 45.4 45.4 45.4 0 233.57 -45.4 45.4 -45.13 -45.4 0 -233.57 45.13 -45.4 -45.13 -45.4 0 -233.57zm53.41 611.34l45.13 -45.4 119.93 0 45.41 45.4 -45.41 45.4 -119.93 0 -45.13 -45.4zm-61.69 45.4l-119.66 0 -45.41 -45.4 45.41 -45.4 119.66 0 45.41 45.4 -45.41 45.4zm61.69 -710.14l45.13 -45.4 119.93 0 45.41 45.4 -45.41 45.4 -119.93 0 -45.13 -45.4zm-61.69 45.4l-119.66 0 -45.41 -45.4 45.41 -45.4 119.66 0 45.41 45.4 -45.41 45.4z"/>
  <path class="fil7" d="M21552.58 18296.91l241.04 0 45.11 45.4 -45.11 45.4 -241.04 0 -45.12 -45.4 45.12 -45.4zm241.04 423.17l-107.96 0 -45.41 -45.4 45.41 -45.4 198.49 0 -90.53 90.8zm-339.57 -324.37l45.41 -45.41 45.13 45.41 0 233.57 -45.13 45.4 45.13 45.4 0 233.57 -45.13 45.4 -45.41 -45.4 0 -233.57 45.41 -45.4 -45.41 -45.4 0 -233.57zm98.53 565.94l241.04 0 45.11 45.4 -45.11 45.4 -241.04 0 -45.12 -45.4 45.12 -45.4zm249.03 -233.57l90.53 -90.52 0 316.09 -45.12 45.4 -45.41 -45.4 0 -225.57zm90.53 -244.71l-45.12 45.4 -45.41 -45.4 0 -87.66 45.41 -45.41 45.12 45.41 0 87.66z"/>
  <path class="fil7" d="M23024.7 18342.31l45.41 -45.4 45.12 45.4 0 286.97 -45.12 45.4 45.12 45.4 0 286.97 -45.12 45.4 -45.41 -45.4 0 -286.97 45.41 -45.4 -45.41 -45.4 0 -286.97zm-257.02 286.97l-45.13 45.4 45.13 45.4 0 286.97 -45.13 45.4 -45.41 -45.4 0 -286.97 45.41 -45.4 -45.41 -45.4 0 -286.97 45.41 -45.4 45.13 45.4 0 286.97zm245.03 0l-60.54 0 -172.21 -226.44 0 -60.53 60.25 0 172.5 226.72 0 60.25z"/>
  <path class="fil8" d="M24753.37 18296.91l331.57 0 -90.54 90.8 -241.03 0 -45.12 -45.4 45.12 -45.4zm0 332.37l241.03 0 45.12 45.4 -45.12 45.4 -241.03 0 -45.12 -45.4 45.12 -45.4zm-98.53 98.8l45.41 -45.41 45.12 45.41 0 278.97 -45.12 45.4 -45.41 -45.4 0 -278.97zm347.56 -332.37l90.53 -90.81 0 316.38 -45.12 45.4 -45.41 -45.4 0 -225.57zm-347.56 0l45.41 -45.41 45.12 45.41 0 225.57 -45.12 45.4 -45.41 -45.4 0 -225.57zm347.56 332.37l45.41 -45.41 45.12 45.41 0 278.97 -45.12 45.4 -45.41 -45.4 0 -278.97z"/>
  <path class="fil8" d="M25976.45 18296.91l241.04 0 45.12 45.4 -45.12 45.4 -241.04 0 -45.11 -45.4 45.11 -45.4zm241.04 423.17l-107.95 0 -45.41 -45.4 45.41 -45.4 198.49 0 -90.54 90.8zm-339.56 -324.37l45.41 -45.41 45.12 45.41 0 233.57 -45.12 45.4 45.12 45.4 0 233.57 -45.12 45.4 -45.41 -45.4 0 -233.57 45.41 -45.4 -45.41 -45.4 0 -233.57zm98.52 565.94l241.04 0 45.12 45.4 -45.12 45.4 -241.04 0 -45.11 -45.4 45.11 -45.4zm249.04 -233.57l90.53 -90.52 0 316.09 -45.12 45.4 -45.41 -45.4 0 -225.57zm90.53 -244.71l-45.12 45.4 -45.41 -45.4 0 -87.66 45.41 -45.41 45.12 45.41 0 87.66z"/>
  <path class="fil8" d="M27109.02 18296.91l339.55 0 45.42 45.4 -45.42 45.4 -249.03 0 -90.52 -90.8zm90.52 332.37l249.03 0 45.42 45.4 -45.42 45.4 -249.03 0 -45.11 -45.4 45.11 -45.4zm-98.52 98.8l45.41 -45.41 45.12 45.41 0 225.57 -90.53 90.8 0 -316.37zm0 -423.18l90.53 90.81 0 225.57 -45.12 45.4 -45.41 -45.4 0 -316.38zm8 747.55l90.52 -90.8 249.03 0 45.42 45.4 -45.42 45.4 -339.55 0z"/>
  <path class="fil8" d="M28527.59 18342.31l45.42 -45.4 45.12 45.4 0 286.97 -45.12 45.4 45.12 45.4 0 286.97 -45.12 45.4 -45.42 -45.4 0 -286.97 45.42 -45.4 -45.42 -45.4 0 -286.97zm-257.02 286.97l-45.12 45.4 45.12 45.4 0 286.97 -45.12 45.4 -45.41 -45.4 0 -286.97 45.41 -45.4 -45.41 -45.4 0 -286.97 45.41 -45.4 45.12 45.4 0 286.97zm245.03 0l-60.54 0 -172.21 -226.44 0 -60.53 60.25 0 172.5 226.72 0 60.25z"/>
  <path class="fil8" d="M29501.65 18296.91l241.04 0 45.12 45.4 -45.12 45.4 -241.04 0 -45.11 -45.4 45.11 -45.4zm-98.52 98.8l45.41 -45.41 45.12 45.41 0 233.57 -45.12 45.4 45.12 45.4 0 233.57 -45.12 45.4 -45.41 -45.4 0 -233.57 45.41 -45.4 -45.41 -45.4 0 -233.57zm98.52 565.94l241.04 0 45.12 45.4 -45.12 45.4 -241.04 0 -45.11 -45.4 45.11 -45.4zm294.45 -143.91l45.12 45.4 0 90.51 -45.12 45.4 -45.42 -45.4 0 -90.51 45.42 -45.4zm45.12 -422.03l0 90.51 -45.12 45.4 -45.42 -45.4 0 -90.51 45.42 -45.41 45.12 45.41z"/>
  <path class="fil8" d="M30724.74 18629.28l241.04 0 45.12 45.4 -45.12 45.4 -241.04 0 -45.11 -45.4 45.11 -45.4zm241.04 423.17l-294.16 0 -45.4 -45.4 45.4 -45.4 294.16 0 45.12 45.4 -45.12 45.4zm7.99 -431.17l0 -278.97 45.42 -45.4 45.12 45.4 0 278.97 -45.12 45.4 -45.42 -45.4zm-347.55 0l0 -278.97 45.4 -45.4 45.13 45.4 0 278.97 -45.13 45.4 -45.4 -45.4zm347.55 106.8l45.42 -45.41 45.12 45.41 0 225.57 -45.12 45.4 -45.42 -45.4 0 -225.57z"/>
 </g>
</svg>
